<?xml version="1.0" encoding="UTF-8" standalone="no"?>
<!-- Created with Inkscape (http://www.inkscape.org/) -->

<svg
   xmlns:dc="http://purl.org/dc/elements/1.1/"
   xmlns:cc="http://creativecommons.org/ns#"
   xmlns:rdf="http://www.w3.org/1999/02/22-rdf-syntax-ns#"
   xmlns:svg="http://www.w3.org/2000/svg"
   xmlns="http://www.w3.org/2000/svg"
   xmlns:sodipodi="http://sodipodi.sourceforge.net/DTD/sodipodi-0.dtd"
   xmlns:inkscape="http://www.inkscape.org/namespaces/inkscape"
   id="svg4136"
   version="1.1"
   inkscape:version="0.92.1 r15371"
   width="533.33331"
   height="533.33331"
   viewBox="0 0 500 500"
   sodipodi:docname="app-black.svg">
  <metadata
     id="metadata4142">
    <rdf:RDF>
      <cc:Work
         rdf:about="">
        <dc:format>image/svg+xml</dc:format>
        <dc:type
           rdf:resource="http://purl.org/dc/dcmitype/StillImage" />
        <dc:title></dc:title>
      </cc:Work>
    </rdf:RDF>
  </metadata>
  <defs
     id="defs4140" />
  <sodipodi:namedview
     pagecolor="#ffffff"
     bordercolor="#666666"
     borderopacity="1"
     objecttolerance="10"
     gridtolerance="10"
     guidetolerance="10"
     inkscape:pageopacity="0"
     inkscape:pageshadow="2"
     inkscape:window-width="1298"
     inkscape:window-height="1035"
     id="namedview4138"
     showgrid="false"
     inkscape:zoom="0.50000001"
     inkscape:cx="-9.7484281"
     inkscape:cy="501.15736"
     inkscape:window-x="1690"
     inkscape:window-y="124"
     inkscape:window-maximized="0"
     inkscape:current-layer="svg4136" />
  <g
     id="g4190"
     transform="matrix(1.194993,0,0,1.194993,-64.34974,-42.748247)"
     style="fill:#000000">
    <path
       d="m 376.90749,319.7248 c 5.25665,14.85275 8.56621,24.18063 18.33393,41.8441 1.50728,1.39999 2.42988,4.29114 -19.15462,-5.76623 -11.70949,-5.44441 -28.16068,-14.24664 -45.29849,-22.37837 -46.28544,10.64742 -83.85447,9.60145 -120.14154,7.46124 -50.66778,-2.99845 -58.00029,-15.35697 -84.879,-36.27096 -19.65885,-15.44279 -43.43719,-41.5491 -40.192,-82.84606 0,-11.52176 2.5586,-26.02586 7.691884,-43.51767 -3.899575,-26.37986 -9.783821,-33.96446 -15.421328,-33.65337 -8.233648,0.46131 -15.904076,17.7493 -15.904076,17.7493 -2.28505,37.04336 -6.136357,60.17805 -2.574702,94.97928 4.752449,46.49464 30.193626,62.16808 41.211152,72.64387 11.00144,10.49722 49.21953,33.20814 89.84603,37.98742 36.41579,4.27505 99.78002,0.41839 139.96666,-7.85817 28.80972,7.16622 66.88297,29.01892 88.71421,39.18357 21.56304,10.03595 20.6619,7.16624 19.14926,5.78234 -14.64355,-26.48713 -14.2037,-32.64494 -28.80971,-70.17108 3.51874,-2.68197 7.04285,-5.82523 10.72787,-9.7409 21.98144,-23.30098 32.1622,-41.63491 25.77375,-43.33528 -5.97008,-1.71646 -11.94551,-2.55325 -17.91556,-2.55325 -14.75084,15.02441 -23.55307,32.24802 -51.12372,40.46022 z"
       style="fill:#000000;fill-opacity:1;fill-rule:nonzero;stroke:none"
       id="path46"
       inkscape:connector-curvature="0" />
    <path
       d="m 450.51148,219.8643 c -0.28966,0 -0.56323,0 -0.85823,0.0166 -26.5676,0.67586 -65.22551,6.41528 -90.7847,13.45276 -25.54309,7.04286 -37.9928,15.38379 -63.06921,21.24658 -25.0818,5.84668 -72.45612,5.86814 -97.47353,3.94249 -25.01743,-1.90957 -24.03583,-9.3869 -50.56052,-25.79519 -14.1447,-9.13479 -31.13766,16.11328 -16.63358,24.66339 29.74842,18.41441 59.10528,26.81971 87.61999,29.08329 28.52006,2.25822 56.198,-1.636 82.66367,-7.81526 26.46034,-6.18462 62.03934,-18.0443 86.80466,-24.85114 24.76531,-6.83366 38.76521,-8.61448 62.06616,-9.19916 16.48876,0.14458 16.71941,-24.57758 0.22529,-24.74384 z"
       style="fill:#000000;fill-opacity:1;fill-rule:evenodd;stroke:none"
       id="path48"
       inkscape:connector-curvature="0" />
    <path
       d="m 459.63018,148.05723 c -13.05584,0.31111 -29.48022,1.73793 -42.11767,4.23216 -12.61062,2.49423 -21.4343,6.03442 -33.77674,9.70336 -12.3585,3.66357 -22.79675,5.86279 -35.03188,9.69802 -12.23516,3.85666 -26.27259,9.36542 -38.55602,12.40679 -24.55612,6.05588 -49.27852,11.70947 -74.71432,7.77234 -24.76532,-3.81375 -50.89307,-13.03437 -81.48899,-27.42583 -14.28955,-9.01142 -19.31555,10.45433 -12.7179,21.22512 22.67338,19.19218 31.36832,19.84121 62.79565,22.27108 31.45415,2.40841 85.65678,6.59765 112.05808,0.16601 26.10631,-6.36699 43.56057,-16.74086 67.4462,-23.84272 23.86416,-7.10185 54.12216,-10.93707 76.70971,-11.48419 8.36239,-0.10211 8.06736,-0.75096 7.90108,-6.99458 -0.15012,-6.22754 -0.15012,-18.0443 -8.5072,-17.72782 z"
       style="fill:#000000;fill-opacity:1;fill-rule:evenodd;stroke:none"
       id="path50"
       inkscape:connector-curvature="0" />
    <path
       d="m 392.87056,94.101365 c -0.28965,0.0214 -0.58466,0.0428 -0.85822,0.0644 -24.32547,2.5586 -43.26554,7.584595 -59.58803,12.803705 -16.32247,5.21376 -30.02732,10.5777 -43.89848,13.76389 -13.87115,3.18618 -51.64938,2.22066 -70.69138,-0.18753 -19.04735,-2.42986 -19.36381,-6.308 -51.00035,-18.96153 -7.73479,-3.250546 -15.55005,8.96851 -17.87264,14.7723 -2.30649,5.80377 0.83677,5.21374 8.69494,8.19073 32.97751,13.17921 59.02482,20.09332 80.87751,22.79675 21.83124,2.70343 39.45179,1.19615 55.52215,-2.51569 16.09181,-3.68502 28.95991,-12.67498 44.50461,-17.68492 15.55007,-5.026 33.75528,-6.05051 56.03172,-8.37847 16.99296,-1.38389 32.32848,-29.855685 -1.72183,-24.663385 z"
       style="fill:#000000;fill-opacity:1;fill-rule:evenodd;stroke:none"
       id="path52"
       inkscape:connector-curvature="0" />
  </g>
</svg>
